<mxfile host="app.diagrams.net" agent="Mozilla/5.0 (Macintosh; Intel Mac OS X 10_15_7) AppleWebKit/537.36 (KHTML, like Gecko) Chrome/131.0.0.0 Safari/537.36" version="26.0.4">
  <diagram name="Page-1" id="aIIHpxa8wlwALEiTspTL">
    <mxGraphModel dx="3100" dy="1748" grid="1" gridSize="10" guides="1" tooltips="1" connect="1" arrows="1" fold="1" page="1" pageScale="1" pageWidth="850" pageHeight="1100" math="0" shadow="0">
      <root>
        <mxCell id="0" />
        <mxCell id="1" parent="0" />
        <mxCell id="wxUAomHZFFAQ0tunHvV--1" value="INPUT (DROP)" style="rounded=0;whiteSpace=wrap;html=1;verticalAlign=top;" parent="1" vertex="1">
          <mxGeometry x="-700" y="20" width="320" height="340" as="geometry" />
        </mxCell>
        <mxCell id="wxUAomHZFFAQ0tunHvV--2" value="OUTPUT" style="rounded=0;whiteSpace=wrap;html=1;strokeColor=default;align=center;verticalAlign=top;fontFamily=Helvetica;fontSize=12;fontColor=default;fillColor=default;" parent="1" vertex="1">
          <mxGeometry x="1090" y="40" width="320" height="440" as="geometry" />
        </mxCell>
        <mxCell id="wxUAomHZFFAQ0tunHvV--3" value="FORWARD" style="rounded=0;whiteSpace=wrap;html=1;strokeColor=default;align=center;verticalAlign=top;fontFamily=Helvetica;fontSize=12;fontColor=default;fillColor=default;" parent="1" vertex="1">
          <mxGeometry x="730" y="40" width="320" height="440" as="geometry" />
        </mxCell>
        <mxCell id="wxUAomHZFFAQ0tunHvV--4" value="device: lo" style="rounded=0;whiteSpace=wrap;html=1;strokeColor=#36393d;align=left;verticalAlign=middle;fontFamily=Helvetica;fontSize=12;fillColor=#ffcc99;" parent="1" vertex="1">
          <mxGeometry x="-680" y="50" width="280" height="20" as="geometry" />
        </mxCell>
        <mxCell id="wxUAomHZFFAQ0tunHvV--5" value="conntrack: established,related" style="rounded=0;whiteSpace=wrap;html=1;strokeColor=#36393d;align=left;verticalAlign=middle;fontFamily=Helvetica;fontSize=12;fillColor=#ffcc99;" parent="1" vertex="1">
          <mxGeometry x="-680" y="80" width="280" height="20" as="geometry" />
        </mxCell>
        <mxCell id="wxUAomHZFFAQ0tunHvV--19" style="edgeStyle=orthogonalEdgeStyle;rounded=0;orthogonalLoop=1;jettySize=auto;html=1;fontFamily=Helvetica;fontSize=12;fontColor=default;" parent="1" source="wxUAomHZFFAQ0tunHvV--6" target="wxUAomHZFFAQ0tunHvV--7" edge="1">
          <mxGeometry relative="1" as="geometry">
            <Array as="points">
              <mxPoint x="-365" y="120" />
              <mxPoint x="-365" y="20" />
            </Array>
          </mxGeometry>
        </mxCell>
        <mxCell id="wxUAomHZFFAQ0tunHvV--6" value="tcp flag: syn" style="rounded=0;whiteSpace=wrap;html=1;align=left;verticalAlign=middle;fontFamily=Helvetica;fontSize=12;fillColor=#f5f5f5;fontColor=#333333;strokeColor=#666666;" parent="1" vertex="1">
          <mxGeometry x="-680" y="110" width="280" height="20" as="geometry" />
        </mxCell>
        <mxCell id="wxUAomHZFFAQ0tunHvV--7" value="SYN_FLOOD" style="rounded=0;whiteSpace=wrap;html=1;strokeColor=default;align=center;verticalAlign=top;fontFamily=Helvetica;fontSize=12;fontColor=default;fillColor=default;dashed=1;" parent="1" vertex="1">
          <mxGeometry x="-330" y="20" width="320" height="100" as="geometry" />
        </mxCell>
        <mxCell id="wxUAomHZFFAQ0tunHvV--8" value="tcp: 9001 # shadowsocks" style="rounded=0;whiteSpace=wrap;html=1;strokeColor=#36393d;align=left;verticalAlign=middle;fontFamily=Helvetica;fontSize=12;fillColor=#ffcc99;" parent="1" vertex="1">
          <mxGeometry x="-680" y="140" width="280" height="20" as="geometry" />
        </mxCell>
        <mxCell id="wxUAomHZFFAQ0tunHvV--9" value="udp&lt;span style=&quot;background-color: transparent; color: light-dark(rgb(0, 0, 0), rgb(255, 255, 255));&quot;&gt;: 9001 # shadosocks, needed?&lt;/span&gt;" style="rounded=0;whiteSpace=wrap;html=1;strokeColor=#36393d;align=left;verticalAlign=middle;fontFamily=Helvetica;fontSize=12;fillColor=#ffcc99;" parent="1" vertex="1">
          <mxGeometry x="-680" y="170" width="280" height="20" as="geometry" />
        </mxCell>
        <mxCell id="wxUAomHZFFAQ0tunHvV--10" value="tcp: 1080 # v2ray" style="rounded=0;whiteSpace=wrap;html=1;strokeColor=#36393d;align=left;verticalAlign=middle;fontFamily=Helvetica;fontSize=12;fillColor=#ffcc99;" parent="1" vertex="1">
          <mxGeometry x="-680" y="200" width="280" height="20" as="geometry" />
        </mxCell>
        <mxCell id="wxUAomHZFFAQ0tunHvV--11" value="udp&lt;span style=&quot;background-color: transparent; color: light-dark(rgb(0, 0, 0), rgb(255, 255, 255));&quot;&gt;: 1080 # v2ray, needed?&lt;/span&gt;" style="rounded=0;whiteSpace=wrap;html=1;strokeColor=#36393d;align=left;verticalAlign=middle;fontFamily=Helvetica;fontSize=12;fillColor=#ffcc99;" parent="1" vertex="1">
          <mxGeometry x="-680" y="230" width="280" height="20" as="geometry" />
        </mxCell>
        <mxCell id="wxUAomHZFFAQ0tunHvV--20" style="edgeStyle=orthogonalEdgeStyle;rounded=0;orthogonalLoop=1;jettySize=auto;html=1;fontFamily=Helvetica;fontSize=12;fontColor=default;" parent="1" source="wxUAomHZFFAQ0tunHvV--13" target="wxUAomHZFFAQ0tunHvV--15" edge="1">
          <mxGeometry relative="1" as="geometry">
            <Array as="points">
              <mxPoint x="-360" y="270" />
              <mxPoint x="-360" y="140" />
            </Array>
          </mxGeometry>
        </mxCell>
        <mxCell id="wxUAomHZFFAQ0tunHvV--13" value="device: br-lan" style="rounded=0;whiteSpace=wrap;html=1;align=left;verticalAlign=middle;fontFamily=Helvetica;fontSize=12;fillColor=#f5f5f5;fontColor=#333333;strokeColor=#666666;" parent="1" vertex="1">
          <mxGeometry x="-680" y="260" width="280" height="20" as="geometry" />
        </mxCell>
        <mxCell id="wxUAomHZFFAQ0tunHvV--21" style="edgeStyle=orthogonalEdgeStyle;rounded=0;orthogonalLoop=1;jettySize=auto;html=1;fontFamily=Helvetica;fontSize=12;fontColor=default;" parent="1" source="wxUAomHZFFAQ0tunHvV--14" target="wxUAomHZFFAQ0tunHvV--16" edge="1">
          <mxGeometry relative="1" as="geometry">
            <mxPoint x="-480" y="510" as="targetPoint" />
            <Array as="points">
              <mxPoint x="-350" y="300" />
              <mxPoint x="-350" y="260" />
            </Array>
          </mxGeometry>
        </mxCell>
        <mxCell id="wxUAomHZFFAQ0tunHvV--14" value="device: wan" style="rounded=0;whiteSpace=wrap;html=1;align=left;verticalAlign=middle;fontFamily=Helvetica;fontSize=12;fillColor=#f5f5f5;fontColor=#333333;strokeColor=#666666;" parent="1" vertex="1">
          <mxGeometry x="-680" y="290" width="280" height="20" as="geometry" />
        </mxCell>
        <mxCell id="wxUAomHZFFAQ0tunHvV--15" value="INPUT_LAN" style="rounded=0;whiteSpace=wrap;html=1;strokeColor=default;align=center;verticalAlign=top;fontFamily=Helvetica;fontSize=12;fontColor=default;fillColor=default;dashed=1;" parent="1" vertex="1">
          <mxGeometry x="-330" y="140" width="320" height="100" as="geometry" />
        </mxCell>
        <mxCell id="wxUAomHZFFAQ0tunHvV--16" value="INPUT_WAN" style="rounded=0;whiteSpace=wrap;html=1;strokeColor=default;align=center;verticalAlign=top;fontFamily=Helvetica;fontSize=12;fontColor=default;fillColor=default;dashed=1;" parent="1" vertex="1">
          <mxGeometry x="-330" y="260" width="320" height="320" as="geometry" />
        </mxCell>
        <mxCell id="wxUAomHZFFAQ0tunHvV--22" style="edgeStyle=orthogonalEdgeStyle;rounded=0;orthogonalLoop=1;jettySize=auto;html=1;fontFamily=Helvetica;fontSize=12;fontColor=default;" parent="1" source="wxUAomHZFFAQ0tunHvV--17" target="wxUAomHZFFAQ0tunHvV--18" edge="1">
          <mxGeometry relative="1" as="geometry">
            <Array as="points">
              <mxPoint x="-360" y="330" />
              <mxPoint x="-360" y="600" />
            </Array>
          </mxGeometry>
        </mxCell>
        <mxCell id="wxUAomHZFFAQ0tunHvV--17" value="*" style="rounded=0;whiteSpace=wrap;html=1;align=left;verticalAlign=middle;fontFamily=Helvetica;fontSize=12;fillColor=#f5f5f5;fontColor=#333333;strokeColor=#666666;" parent="1" vertex="1">
          <mxGeometry x="-680" y="320" width="280" height="20" as="geometry" />
        </mxCell>
        <mxCell id="wxUAomHZFFAQ0tunHvV--18" value="HANDLE_REJECT" style="rounded=0;whiteSpace=wrap;html=1;strokeColor=default;align=center;verticalAlign=top;fontFamily=Helvetica;fontSize=12;fontColor=default;fillColor=default;dashed=1;" parent="1" vertex="1">
          <mxGeometry x="-330" y="600" width="320" height="100" as="geometry" />
        </mxCell>
        <mxCell id="wxUAomHZFFAQ0tunHvV--23" value="ACCEPT" style="rounded=0;whiteSpace=wrap;html=1;strokeColor=#36393d;align=left;verticalAlign=middle;fontFamily=Helvetica;fontSize=12;fillColor=#ffcc99;" parent="1" vertex="1">
          <mxGeometry x="-820" y="20" width="80" height="20" as="geometry" />
        </mxCell>
        <mxCell id="wxUAomHZFFAQ0tunHvV--24" value="DROP" style="rounded=0;whiteSpace=wrap;html=1;strokeColor=#b85450;align=left;verticalAlign=middle;fontFamily=Helvetica;fontSize=12;fillColor=#f8cecc;" parent="1" vertex="1">
          <mxGeometry x="-820" y="50" width="80" height="20" as="geometry" />
        </mxCell>
        <mxCell id="wxUAomHZFFAQ0tunHvV--25" value="REJECT" style="rounded=0;whiteSpace=wrap;html=1;strokeColor=#B20000;align=left;verticalAlign=middle;fontFamily=Helvetica;fontSize=12;fillColor=#e51400;fontColor=#ffffff;" parent="1" vertex="1">
          <mxGeometry x="-820" y="80" width="80" height="20" as="geometry" />
        </mxCell>
        <mxCell id="wxUAomHZFFAQ0tunHvV--27" value="LINK" style="rounded=0;whiteSpace=wrap;html=1;align=left;verticalAlign=middle;fontFamily=Helvetica;fontSize=12;fillColor=#f5f5f5;fontColor=#333333;strokeColor=#666666;" parent="1" vertex="1">
          <mxGeometry x="-820" y="110" width="80" height="20" as="geometry" />
        </mxCell>
        <mxCell id="wxUAomHZFFAQ0tunHvV--40" style="edgeStyle=orthogonalEdgeStyle;rounded=0;orthogonalLoop=1;jettySize=auto;html=1;fontFamily=Helvetica;fontSize=12;fontColor=default;curved=1;" parent="1" source="wxUAomHZFFAQ0tunHvV--29" edge="1">
          <mxGeometry relative="1" as="geometry">
            <mxPoint y="40" as="targetPoint" />
          </mxGeometry>
        </mxCell>
        <mxCell id="wxUAomHZFFAQ0tunHvV--29" value="rate under: 25 p/s, burst 50" style="rounded=0;whiteSpace=wrap;html=1;align=left;verticalAlign=middle;fontFamily=Helvetica;fontSize=12;fillColor=#f5f5f5;strokeColor=#666666;fontColor=#333333;" parent="1" vertex="1">
          <mxGeometry x="-310" y="50" width="280" height="20" as="geometry" />
        </mxCell>
        <mxCell id="wxUAomHZFFAQ0tunHvV--35" value="*" style="rounded=0;whiteSpace=wrap;html=1;strokeColor=#b85450;align=left;verticalAlign=middle;fontFamily=Helvetica;fontSize=12;fillColor=#f8cecc;" parent="1" vertex="1">
          <mxGeometry x="-310" y="80" width="280" height="20" as="geometry" />
        </mxCell>
        <mxCell id="wxUAomHZFFAQ0tunHvV--36" value="conntrack: dnat" style="rounded=0;whiteSpace=wrap;html=1;strokeColor=#36393d;align=left;verticalAlign=middle;fontFamily=Helvetica;fontSize=12;fillColor=#ffcc99;" parent="1" vertex="1">
          <mxGeometry x="-310" y="170" width="280" height="20" as="geometry" />
        </mxCell>
        <mxCell id="wxUAomHZFFAQ0tunHvV--37" value="ACCEPT_FROM_LAN" style="rounded=0;whiteSpace=wrap;html=1;strokeColor=default;align=center;verticalAlign=top;fontFamily=Helvetica;fontSize=12;fontColor=default;fillColor=default;dashed=1;" parent="1" vertex="1">
          <mxGeometry x="50" y="210" width="320" height="70" as="geometry" />
        </mxCell>
        <mxCell id="wxUAomHZFFAQ0tunHvV--39" style="edgeStyle=orthogonalEdgeStyle;rounded=0;orthogonalLoop=1;jettySize=auto;html=1;fontFamily=Helvetica;fontSize=12;fontColor=default;" parent="1" source="wxUAomHZFFAQ0tunHvV--38" target="wxUAomHZFFAQ0tunHvV--37" edge="1">
          <mxGeometry relative="1" as="geometry">
            <Array as="points">
              <mxPoint x="30" y="210" />
              <mxPoint x="30" y="210" />
            </Array>
          </mxGeometry>
        </mxCell>
        <mxCell id="wxUAomHZFFAQ0tunHvV--38" value="*" style="rounded=0;whiteSpace=wrap;html=1;align=left;verticalAlign=middle;fontFamily=Helvetica;fontSize=12;fillColor=#f5f5f5;fontColor=#333333;strokeColor=#666666;" parent="1" vertex="1">
          <mxGeometry x="-310" y="200" width="280" height="20" as="geometry" />
        </mxCell>
        <mxCell id="wxUAomHZFFAQ0tunHvV--41" value="ipv4 &amp;amp; udp: 68 # dhcp" style="rounded=0;whiteSpace=wrap;html=1;strokeColor=#36393d;align=left;verticalAlign=middle;fontFamily=Helvetica;fontSize=12;fillColor=#ffcc99;" parent="1" vertex="1">
          <mxGeometry x="-310" y="290" width="280" height="20" as="geometry" />
        </mxCell>
        <mxCell id="wxUAomHZFFAQ0tunHvV--42" value="icmp: echo-request # ping" style="rounded=0;whiteSpace=wrap;html=1;strokeColor=#36393d;align=left;verticalAlign=middle;fontFamily=Helvetica;fontSize=12;fillColor=#ffcc99;" parent="1" vertex="1">
          <mxGeometry x="-310" y="320" width="280" height="20" as="geometry" />
        </mxCell>
        <mxCell id="wxUAomHZFFAQ0tunHvV--43" value="ipv4 &amp;amp; igmp" style="rounded=0;whiteSpace=wrap;html=1;strokeColor=#36393d;align=left;verticalAlign=middle;fontFamily=Helvetica;fontSize=12;fillColor=#ffcc99;" parent="1" vertex="1">
          <mxGeometry x="-310" y="350" width="280" height="20" as="geometry" />
        </mxCell>
        <mxCell id="wxUAomHZFFAQ0tunHvV--44" value="ipv6 &amp;amp; udp: 546 # dhcpv6" style="rounded=0;whiteSpace=wrap;html=1;strokeColor=#36393d;align=left;verticalAlign=middle;fontFamily=Helvetica;fontSize=12;fillColor=#ffcc99;" parent="1" vertex="1">
          <mxGeometry x="-310" y="380" width="280" height="20" as="geometry" />
        </mxCell>
        <mxCell id="wxUAomHZFFAQ0tunHvV--45" value="src:&amp;nbsp;fe80::/10 &amp;amp; icmpv6 type + code in list 1" style="rounded=0;whiteSpace=wrap;html=1;strokeColor=#36393d;align=left;verticalAlign=middle;fontFamily=Helvetica;fontSize=12;fillColor=#ffcc99;" parent="1" vertex="1">
          <mxGeometry x="-310" y="410" width="280" height="20" as="geometry" />
        </mxCell>
        <mxCell id="wxUAomHZFFAQ0tunHvV--46" value="icmpv6 type in list 2 &amp;amp; rate under: 1000 p/s, burst 5" style="rounded=0;whiteSpace=wrap;html=1;strokeColor=#36393d;align=left;verticalAlign=middle;fontFamily=Helvetica;fontSize=12;fillColor=#ffcc99;" parent="1" vertex="1">
          <mxGeometry x="-310" y="440" width="280" height="20" as="geometry" />
        </mxCell>
        <mxCell id="wxUAomHZFFAQ0tunHvV--47" value="icmpv6 type + code in list 3 &amp;amp; rate under: 1000 p/s, burst 5" style="rounded=0;whiteSpace=wrap;html=1;strokeColor=#36393d;align=left;verticalAlign=middle;fontFamily=Helvetica;fontSize=12;fillColor=#ffcc99;" parent="1" vertex="1">
          <mxGeometry x="-310" y="470" width="280" height="30" as="geometry" />
        </mxCell>
        <mxCell id="wxUAomHZFFAQ0tunHvV--48" value="conntrack: dnat" style="rounded=0;whiteSpace=wrap;html=1;strokeColor=#36393d;align=left;verticalAlign=middle;fontFamily=Helvetica;fontSize=12;fillColor=#ffcc99;" parent="1" vertex="1">
          <mxGeometry x="-310" y="510" width="280" height="20" as="geometry" />
        </mxCell>
        <mxCell id="wxUAomHZFFAQ0tunHvV--49" value="REJECT_FROM_WAN" style="rounded=0;whiteSpace=wrap;html=1;strokeColor=default;align=center;verticalAlign=top;fontFamily=Helvetica;fontSize=12;fontColor=default;fillColor=default;dashed=1;" parent="1" vertex="1">
          <mxGeometry x="50" y="520" width="320" height="60" as="geometry" />
        </mxCell>
        <mxCell id="wxUAomHZFFAQ0tunHvV--51" style="edgeStyle=orthogonalEdgeStyle;rounded=0;orthogonalLoop=1;jettySize=auto;html=1;fontFamily=Helvetica;fontSize=12;fontColor=default;" parent="1" source="wxUAomHZFFAQ0tunHvV--50" target="wxUAomHZFFAQ0tunHvV--49" edge="1">
          <mxGeometry relative="1" as="geometry" />
        </mxCell>
        <mxCell id="wxUAomHZFFAQ0tunHvV--50" value="*" style="rounded=0;whiteSpace=wrap;html=1;align=left;verticalAlign=middle;fontFamily=Helvetica;fontSize=12;fillColor=#f5f5f5;fontColor=#333333;strokeColor=#666666;" parent="1" vertex="1">
          <mxGeometry x="-310" y="540" width="280" height="20" as="geometry" />
        </mxCell>
        <mxCell id="wxUAomHZFFAQ0tunHvV--52" value="tcp # tcp reset" style="rounded=0;whiteSpace=wrap;html=1;strokeColor=#B20000;align=left;verticalAlign=middle;fontFamily=Helvetica;fontSize=12;fillColor=#e51400;fontColor=#ffffff;" parent="1" vertex="1">
          <mxGeometry x="-310" y="630" width="280" height="20" as="geometry" />
        </mxCell>
        <mxCell id="wxUAomHZFFAQ0tunHvV--53" value="* # icmp port-unreachable" style="rounded=0;whiteSpace=wrap;html=1;strokeColor=#B20000;align=left;verticalAlign=middle;fontFamily=Helvetica;fontSize=12;fillColor=#e51400;fontColor=#ffffff;" parent="1" vertex="1">
          <mxGeometry x="-310" y="660" width="280" height="20" as="geometry" />
        </mxCell>
        <mxCell id="wxUAomHZFFAQ0tunHvV--54" value="device: br-lan" style="rounded=0;whiteSpace=wrap;html=1;strokeColor=#36393d;align=left;verticalAlign=middle;fontFamily=Helvetica;fontSize=12;fillColor=#ffcc99;" parent="1" vertex="1">
          <mxGeometry x="70" y="240" width="280" height="20" as="geometry" />
        </mxCell>
        <mxCell id="wxUAomHZFFAQ0tunHvV--56" style="edgeStyle=orthogonalEdgeStyle;rounded=0;orthogonalLoop=1;jettySize=auto;html=1;entryX=0;entryY=0;entryDx=0;entryDy=0;fontFamily=Helvetica;fontSize=12;fontColor=default;" parent="1" source="wxUAomHZFFAQ0tunHvV--55" target="wxUAomHZFFAQ0tunHvV--18" edge="1">
          <mxGeometry relative="1" as="geometry">
            <Array as="points">
              <mxPoint x="390" y="555" />
              <mxPoint x="390" y="590" />
              <mxPoint x="-350" y="590" />
              <mxPoint x="-350" y="600" />
            </Array>
          </mxGeometry>
        </mxCell>
        <mxCell id="wxUAomHZFFAQ0tunHvV--55" value="device: pppoe-wan" style="rounded=0;whiteSpace=wrap;html=1;align=left;verticalAlign=middle;fontFamily=Helvetica;fontSize=12;fillColor=#f5f5f5;fontColor=#333333;strokeColor=#666666;" parent="1" vertex="1">
          <mxGeometry x="70" y="545" width="280" height="20" as="geometry" />
        </mxCell>
        <mxCell id="wxUAomHZFFAQ0tunHvV--57" value="INPUT (DROP)" style="rounded=0;whiteSpace=wrap;html=1;verticalAlign=top;" parent="1" vertex="1">
          <mxGeometry x="-700" y="950" width="320" height="1110" as="geometry" />
        </mxCell>
        <mxCell id="wxUAomHZFFAQ0tunHvV--58" value="device: lo" style="rounded=0;whiteSpace=wrap;html=1;strokeColor=#36393d;align=left;verticalAlign=middle;fontFamily=Helvetica;fontSize=12;fillColor=#ffcc99;" parent="1" vertex="1">
          <mxGeometry x="-680" y="980" width="280" height="20" as="geometry" />
        </mxCell>
        <mxCell id="wxUAomHZFFAQ0tunHvV--59" value="conntrack: established,related" style="rounded=0;whiteSpace=wrap;html=1;strokeColor=#36393d;align=left;verticalAlign=middle;fontFamily=Helvetica;fontSize=12;fillColor=#ffcc99;" parent="1" vertex="1">
          <mxGeometry x="-680" y="1010" width="280" height="20" as="geometry" />
        </mxCell>
        <mxCell id="wxUAomHZFFAQ0tunHvV--60" style="edgeStyle=orthogonalEdgeStyle;rounded=0;orthogonalLoop=1;jettySize=auto;html=1;fontFamily=Helvetica;fontSize=12;fontColor=default;" parent="1" source="wxUAomHZFFAQ0tunHvV--61" target="wxUAomHZFFAQ0tunHvV--62" edge="1">
          <mxGeometry relative="1" as="geometry">
            <Array as="points">
              <mxPoint x="-540" y="1070" />
              <mxPoint x="-540" y="1070" />
            </Array>
          </mxGeometry>
        </mxCell>
        <mxCell id="wxUAomHZFFAQ0tunHvV--61" value="tcp flag: syn" style="rounded=0;whiteSpace=wrap;html=1;align=left;verticalAlign=middle;fontFamily=Helvetica;fontSize=12;fillColor=#f5f5f5;fontColor=#333333;strokeColor=#666666;" parent="1" vertex="1">
          <mxGeometry x="-680" y="1040" width="280" height="20" as="geometry" />
        </mxCell>
        <mxCell id="wxUAomHZFFAQ0tunHvV--62" value="syn_flood" style="rounded=0;whiteSpace=wrap;html=1;strokeColor=default;align=center;verticalAlign=top;fontFamily=Helvetica;fontSize=12;fontColor=default;fillColor=default;dashed=1;" parent="1" vertex="1">
          <mxGeometry x="-680" y="1070" width="280" height="90" as="geometry" />
        </mxCell>
        <mxCell id="wxUAomHZFFAQ0tunHvV--63" value="tcp: 9001 # shadowsocks" style="rounded=0;whiteSpace=wrap;html=1;strokeColor=#36393d;align=left;verticalAlign=middle;fontFamily=Helvetica;fontSize=12;fillColor=#ffcc99;" parent="1" vertex="1">
          <mxGeometry x="-680" y="1170" width="280" height="20" as="geometry" />
        </mxCell>
        <mxCell id="wxUAomHZFFAQ0tunHvV--64" value="udp&lt;span style=&quot;background-color: transparent; color: light-dark(rgb(0, 0, 0), rgb(255, 255, 255));&quot;&gt;: 9001 # shadosocks, needed?&lt;/span&gt;" style="rounded=0;whiteSpace=wrap;html=1;strokeColor=#36393d;align=left;verticalAlign=middle;fontFamily=Helvetica;fontSize=12;fillColor=#ffcc99;" parent="1" vertex="1">
          <mxGeometry x="-680" y="1200" width="280" height="20" as="geometry" />
        </mxCell>
        <mxCell id="wxUAomHZFFAQ0tunHvV--65" value="tcp: 1080 # v2ray" style="rounded=0;whiteSpace=wrap;html=1;strokeColor=#36393d;align=left;verticalAlign=middle;fontFamily=Helvetica;fontSize=12;fillColor=#ffcc99;" parent="1" vertex="1">
          <mxGeometry x="-680" y="1230" width="280" height="20" as="geometry" />
        </mxCell>
        <mxCell id="wxUAomHZFFAQ0tunHvV--66" value="udp&lt;span style=&quot;background-color: transparent; color: light-dark(rgb(0, 0, 0), rgb(255, 255, 255));&quot;&gt;: 1080 # v2ray, needed?&lt;/span&gt;" style="rounded=0;whiteSpace=wrap;html=1;strokeColor=#36393d;align=left;verticalAlign=middle;fontFamily=Helvetica;fontSize=12;fillColor=#ffcc99;" parent="1" vertex="1">
          <mxGeometry x="-680" y="1260" width="280" height="20" as="geometry" />
        </mxCell>
        <mxCell id="wxUAomHZFFAQ0tunHvV--67" style="edgeStyle=orthogonalEdgeStyle;rounded=0;orthogonalLoop=1;jettySize=auto;html=1;fontFamily=Helvetica;fontSize=12;fontColor=default;" parent="1" source="wxUAomHZFFAQ0tunHvV--68" target="wxUAomHZFFAQ0tunHvV--71" edge="1">
          <mxGeometry relative="1" as="geometry">
            <Array as="points">
              <mxPoint x="-540" y="1300" />
              <mxPoint x="-540" y="1300" />
            </Array>
          </mxGeometry>
        </mxCell>
        <mxCell id="wxUAomHZFFAQ0tunHvV--68" value="device: br-lan" style="rounded=0;whiteSpace=wrap;html=1;align=left;verticalAlign=middle;fontFamily=Helvetica;fontSize=12;fillColor=#f5f5f5;fontColor=#333333;strokeColor=#666666;" parent="1" vertex="1">
          <mxGeometry x="-680" y="1290" width="280" height="20" as="geometry" />
        </mxCell>
        <mxCell id="wxUAomHZFFAQ0tunHvV--69" style="edgeStyle=orthogonalEdgeStyle;rounded=0;orthogonalLoop=1;jettySize=auto;html=1;fontFamily=Helvetica;fontSize=12;fontColor=default;" parent="1" source="wxUAomHZFFAQ0tunHvV--70" target="wxUAomHZFFAQ0tunHvV--72" edge="1">
          <mxGeometry relative="1" as="geometry">
            <mxPoint x="-480" y="1440" as="targetPoint" />
            <Array as="points">
              <mxPoint x="-540" y="1520" />
              <mxPoint x="-540" y="1520" />
            </Array>
          </mxGeometry>
        </mxCell>
        <mxCell id="wxUAomHZFFAQ0tunHvV--70" value="device: wan" style="rounded=0;whiteSpace=wrap;html=1;align=left;verticalAlign=middle;fontFamily=Helvetica;fontSize=12;fillColor=#f5f5f5;fontColor=#333333;strokeColor=#666666;" parent="1" vertex="1">
          <mxGeometry x="-680" y="1490" width="280" height="20" as="geometry" />
        </mxCell>
        <mxCell id="wxUAomHZFFAQ0tunHvV--71" value="input_lan" style="rounded=0;whiteSpace=wrap;html=1;strokeColor=default;align=center;verticalAlign=top;fontFamily=Helvetica;fontSize=12;fontColor=default;fillColor=default;dashed=1;" parent="1" vertex="1">
          <mxGeometry x="-680" y="1320" width="280" height="90" as="geometry" />
        </mxCell>
        <mxCell id="wxUAomHZFFAQ0tunHvV--72" value="input_wan" style="rounded=0;whiteSpace=wrap;html=1;strokeColor=default;align=center;verticalAlign=top;fontFamily=Helvetica;fontSize=12;fontColor=default;fillColor=default;dashed=1;" parent="1" vertex="1">
          <mxGeometry x="-680" y="1520" width="280" height="320" as="geometry" />
        </mxCell>
        <mxCell id="wxUAomHZFFAQ0tunHvV--73" style="edgeStyle=orthogonalEdgeStyle;rounded=0;orthogonalLoop=1;jettySize=auto;html=1;fontFamily=Helvetica;fontSize=12;fontColor=default;" parent="1" source="wxUAomHZFFAQ0tunHvV--74" target="wxUAomHZFFAQ0tunHvV--75" edge="1">
          <mxGeometry relative="1" as="geometry">
            <Array as="points">
              <mxPoint x="-530" y="1970" />
              <mxPoint x="-530" y="1970" />
            </Array>
          </mxGeometry>
        </mxCell>
        <mxCell id="wxUAomHZFFAQ0tunHvV--74" value="*" style="rounded=0;whiteSpace=wrap;html=1;align=left;verticalAlign=middle;fontFamily=Helvetica;fontSize=12;fillColor=#f5f5f5;fontColor=#333333;strokeColor=#666666;" parent="1" vertex="1">
          <mxGeometry x="-680" y="1920" width="280" height="20" as="geometry" />
        </mxCell>
        <mxCell id="wxUAomHZFFAQ0tunHvV--75" value="HANDLE_REJECT" style="rounded=0;whiteSpace=wrap;html=1;strokeColor=default;align=center;verticalAlign=top;fontFamily=Helvetica;fontSize=12;fontColor=default;fillColor=default;dashed=1;" parent="1" vertex="1">
          <mxGeometry x="-680" y="1950" width="280" height="90" as="geometry" />
        </mxCell>
        <mxCell id="wxUAomHZFFAQ0tunHvV--76" value="ACCEPT" style="rounded=0;whiteSpace=wrap;html=1;strokeColor=#36393d;align=left;verticalAlign=middle;fontFamily=Helvetica;fontSize=12;fillColor=#ffcc99;" parent="1" vertex="1">
          <mxGeometry x="-820" y="950" width="80" height="20" as="geometry" />
        </mxCell>
        <mxCell id="wxUAomHZFFAQ0tunHvV--77" value="DROP" style="rounded=0;whiteSpace=wrap;html=1;strokeColor=#b85450;align=left;verticalAlign=middle;fontFamily=Helvetica;fontSize=12;fillColor=#f8cecc;" parent="1" vertex="1">
          <mxGeometry x="-820" y="980" width="80" height="20" as="geometry" />
        </mxCell>
        <mxCell id="wxUAomHZFFAQ0tunHvV--78" value="REJECT" style="rounded=0;whiteSpace=wrap;html=1;strokeColor=#B20000;align=left;verticalAlign=middle;fontFamily=Helvetica;fontSize=12;fillColor=#e51400;fontColor=#ffffff;" parent="1" vertex="1">
          <mxGeometry x="-820" y="1010" width="80" height="20" as="geometry" />
        </mxCell>
        <mxCell id="wxUAomHZFFAQ0tunHvV--79" value="LINK" style="rounded=0;whiteSpace=wrap;html=1;align=left;verticalAlign=middle;fontFamily=Helvetica;fontSize=12;fillColor=#f5f5f5;fontColor=#333333;strokeColor=#666666;" parent="1" vertex="1">
          <mxGeometry x="-820" y="1040" width="80" height="20" as="geometry" />
        </mxCell>
        <mxCell id="wxUAomHZFFAQ0tunHvV--103" style="edgeStyle=orthogonalEdgeStyle;rounded=0;orthogonalLoop=1;jettySize=auto;html=1;fontFamily=Helvetica;fontSize=12;fontColor=default;" parent="1" source="wxUAomHZFFAQ0tunHvV--81" target="wxUAomHZFFAQ0tunHvV--63" edge="1">
          <mxGeometry relative="1" as="geometry">
            <Array as="points">
              <mxPoint x="-690" y="1110" />
            </Array>
          </mxGeometry>
        </mxCell>
        <mxCell id="wxUAomHZFFAQ0tunHvV--81" value="rate under: 25 p/s, burst 50" style="rounded=0;whiteSpace=wrap;html=1;align=left;verticalAlign=middle;fontFamily=Helvetica;fontSize=12;fillColor=#f5f5f5;strokeColor=#666666;fontColor=#333333;" parent="1" vertex="1">
          <mxGeometry x="-670" y="1100" width="260" height="20" as="geometry" />
        </mxCell>
        <mxCell id="wxUAomHZFFAQ0tunHvV--82" value="*" style="rounded=0;whiteSpace=wrap;html=1;strokeColor=#b85450;align=left;verticalAlign=middle;fontFamily=Helvetica;fontSize=12;fillColor=#f8cecc;" parent="1" vertex="1">
          <mxGeometry x="-670" y="1130" width="260" height="20" as="geometry" />
        </mxCell>
        <mxCell id="wxUAomHZFFAQ0tunHvV--83" value="conntrack: dnat" style="rounded=0;whiteSpace=wrap;html=1;strokeColor=#36393d;align=left;verticalAlign=middle;fontFamily=Helvetica;fontSize=12;fillColor=#ffcc99;" parent="1" vertex="1">
          <mxGeometry x="-670" y="1350" width="260" height="20" as="geometry" />
        </mxCell>
        <mxCell id="wxUAomHZFFAQ0tunHvV--84" value="accept_from_lan" style="rounded=0;whiteSpace=wrap;html=1;strokeColor=default;align=center;verticalAlign=top;fontFamily=Helvetica;fontSize=12;fontColor=default;fillColor=default;dashed=1;" parent="1" vertex="1">
          <mxGeometry x="-680" y="1420" width="280" height="60" as="geometry" />
        </mxCell>
        <mxCell id="wxUAomHZFFAQ0tunHvV--106" style="edgeStyle=orthogonalEdgeStyle;rounded=0;orthogonalLoop=1;jettySize=auto;html=1;fontFamily=Helvetica;fontSize=12;fontColor=default;" parent="1" source="wxUAomHZFFAQ0tunHvV--86" target="wxUAomHZFFAQ0tunHvV--84" edge="1">
          <mxGeometry relative="1" as="geometry" />
        </mxCell>
        <mxCell id="wxUAomHZFFAQ0tunHvV--86" value="*" style="rounded=0;whiteSpace=wrap;html=1;align=left;verticalAlign=middle;fontFamily=Helvetica;fontSize=12;fillColor=#f5f5f5;fontColor=#333333;strokeColor=#666666;" parent="1" vertex="1">
          <mxGeometry x="-670" y="1380" width="260" height="20" as="geometry" />
        </mxCell>
        <mxCell id="wxUAomHZFFAQ0tunHvV--87" value="ipv4 &amp;amp; udp: 68 # dhcp" style="rounded=0;whiteSpace=wrap;html=1;strokeColor=#36393d;align=left;verticalAlign=middle;fontFamily=Helvetica;fontSize=12;fillColor=#ffcc99;" parent="1" vertex="1">
          <mxGeometry x="-670" y="1550" width="260" height="20" as="geometry" />
        </mxCell>
        <mxCell id="wxUAomHZFFAQ0tunHvV--88" value="icmp: echo-request # ping" style="rounded=0;whiteSpace=wrap;html=1;strokeColor=#36393d;align=left;verticalAlign=middle;fontFamily=Helvetica;fontSize=12;fillColor=#ffcc99;" parent="1" vertex="1">
          <mxGeometry x="-670" y="1580" width="260" height="20" as="geometry" />
        </mxCell>
        <mxCell id="wxUAomHZFFAQ0tunHvV--89" value="ipv4 &amp;amp; igmp" style="rounded=0;whiteSpace=wrap;html=1;strokeColor=#36393d;align=left;verticalAlign=middle;fontFamily=Helvetica;fontSize=12;fillColor=#ffcc99;" parent="1" vertex="1">
          <mxGeometry x="-670" y="1610" width="260" height="20" as="geometry" />
        </mxCell>
        <mxCell id="wxUAomHZFFAQ0tunHvV--90" value="ipv6 &amp;amp; udp: 546 # dhcpv6" style="rounded=0;whiteSpace=wrap;html=1;strokeColor=#36393d;align=left;verticalAlign=middle;fontFamily=Helvetica;fontSize=12;fillColor=#ffcc99;" parent="1" vertex="1">
          <mxGeometry x="-670" y="1640" width="260" height="20" as="geometry" />
        </mxCell>
        <mxCell id="wxUAomHZFFAQ0tunHvV--91" value="src:&amp;nbsp;fe80::/10 &amp;amp; icmpv6 type + code in list 1" style="rounded=0;whiteSpace=wrap;html=1;strokeColor=#36393d;align=left;verticalAlign=middle;fontFamily=Helvetica;fontSize=12;fillColor=#ffcc99;" parent="1" vertex="1">
          <mxGeometry x="-670" y="1670" width="260" height="20" as="geometry" />
        </mxCell>
        <mxCell id="wxUAomHZFFAQ0tunHvV--92" value="icmpv6 type in list 2 &amp;amp; rate under: 1000 p/s, burst 5" style="rounded=0;whiteSpace=wrap;html=1;strokeColor=#36393d;align=left;verticalAlign=middle;fontFamily=Helvetica;fontSize=12;fillColor=#ffcc99;" parent="1" vertex="1">
          <mxGeometry x="-670" y="1700" width="260" height="30" as="geometry" />
        </mxCell>
        <mxCell id="wxUAomHZFFAQ0tunHvV--93" value="icmpv6 type + code in list 3 &amp;amp; rate under: 1000 p/s, burst 5" style="rounded=0;whiteSpace=wrap;html=1;strokeColor=#36393d;align=left;verticalAlign=middle;fontFamily=Helvetica;fontSize=12;fillColor=#ffcc99;" parent="1" vertex="1">
          <mxGeometry x="-670" y="1740" width="260" height="30" as="geometry" />
        </mxCell>
        <mxCell id="wxUAomHZFFAQ0tunHvV--94" value="conntrack: dnat" style="rounded=0;whiteSpace=wrap;html=1;strokeColor=#36393d;align=left;verticalAlign=middle;fontFamily=Helvetica;fontSize=12;fillColor=#ffcc99;" parent="1" vertex="1">
          <mxGeometry x="-670" y="1780" width="260" height="20" as="geometry" />
        </mxCell>
        <mxCell id="wxUAomHZFFAQ0tunHvV--95" value="reject_from_wan" style="rounded=0;whiteSpace=wrap;html=1;strokeColor=default;align=center;verticalAlign=top;fontFamily=Helvetica;fontSize=12;fontColor=default;fillColor=default;dashed=1;" parent="1" vertex="1">
          <mxGeometry x="-680" y="1850" width="280" height="60" as="geometry" />
        </mxCell>
        <mxCell id="wxUAomHZFFAQ0tunHvV--96" style="edgeStyle=orthogonalEdgeStyle;rounded=0;orthogonalLoop=1;jettySize=auto;html=1;fontFamily=Helvetica;fontSize=12;fontColor=default;" parent="1" source="wxUAomHZFFAQ0tunHvV--97" target="wxUAomHZFFAQ0tunHvV--95" edge="1">
          <mxGeometry relative="1" as="geometry" />
        </mxCell>
        <mxCell id="wxUAomHZFFAQ0tunHvV--97" value="*" style="rounded=0;whiteSpace=wrap;html=1;align=left;verticalAlign=middle;fontFamily=Helvetica;fontSize=12;fillColor=#f5f5f5;fontColor=#333333;strokeColor=#666666;" parent="1" vertex="1">
          <mxGeometry x="-670" y="1810" width="260" height="20" as="geometry" />
        </mxCell>
        <mxCell id="wxUAomHZFFAQ0tunHvV--98" value="tcp # tcp reset" style="rounded=0;whiteSpace=wrap;html=1;strokeColor=#B20000;align=left;verticalAlign=middle;fontFamily=Helvetica;fontSize=12;fillColor=#e51400;fontColor=#ffffff;" parent="1" vertex="1">
          <mxGeometry x="-670" y="1980" width="260" height="20" as="geometry" />
        </mxCell>
        <mxCell id="wxUAomHZFFAQ0tunHvV--99" value="* # icmp port-unreachable" style="rounded=0;whiteSpace=wrap;html=1;strokeColor=#B20000;align=left;verticalAlign=middle;fontFamily=Helvetica;fontSize=12;fillColor=#e51400;fontColor=#ffffff;" parent="1" vertex="1">
          <mxGeometry x="-670" y="2010" width="260" height="20" as="geometry" />
        </mxCell>
        <mxCell id="wxUAomHZFFAQ0tunHvV--100" value="device: br-lan" style="rounded=0;whiteSpace=wrap;html=1;strokeColor=#36393d;align=left;verticalAlign=middle;fontFamily=Helvetica;fontSize=12;fillColor=#ffcc99;" parent="1" vertex="1">
          <mxGeometry x="-670" y="1450" width="260" height="20" as="geometry" />
        </mxCell>
        <mxCell id="wxUAomHZFFAQ0tunHvV--101" style="edgeStyle=orthogonalEdgeStyle;rounded=0;orthogonalLoop=1;jettySize=auto;html=1;fontFamily=Helvetica;fontSize=12;fontColor=default;entryX=0;entryY=0;entryDx=0;entryDy=0;" parent="1" source="wxUAomHZFFAQ0tunHvV--102" target="wxUAomHZFFAQ0tunHvV--75" edge="1">
          <mxGeometry relative="1" as="geometry">
            <Array as="points">
              <mxPoint x="-690" y="1890" />
              <mxPoint x="-690" y="1950" />
            </Array>
            <mxPoint x="-680" y="1920" as="targetPoint" />
          </mxGeometry>
        </mxCell>
        <mxCell id="wxUAomHZFFAQ0tunHvV--102" value="device: pppoe-wan" style="rounded=0;whiteSpace=wrap;html=1;align=left;verticalAlign=middle;fontFamily=Helvetica;fontSize=12;fillColor=#f5f5f5;fontColor=#333333;strokeColor=#666666;" parent="1" vertex="1">
          <mxGeometry x="-670" y="1880" width="260" height="20" as="geometry" />
        </mxCell>
      </root>
    </mxGraphModel>
  </diagram>
</mxfile>
